<svg xmlns="http://www.w3.org/2000/svg" viewBox="0 0 34 34" width="34" height="34">
  <!-- Favicona: monogram RT z grafickeho navrhu na krémovém disku s mosazným prstencem. -->
  <circle cx="17" cy="17" r="16.5" fill="#F5EBD6" stroke="#B08D4C" stroke-width="1" />
  <g transform="translate(17 17) scale(0.8) translate(-17 -17)" fill="none">
<g transform="translate(2.590 5.150) scale(0.283311 0.283345) translate(0.000004 -0.000002)"><path
                      d="M17.50136 33.75296l0 0c0.125 0 0.125 0 0 0 0.5-0.125 1-0.125 1.5-0.125l0-33.625 8.625 0c3.375 0 8.25-0.125 11.5 1.25 6.25 2.25 9.375 6.875 10.375 12.5 0.875 4.625 0.375 9.875-1.875 14.125-2.25 4.25-5.625 7.25-13 8.375l-2.375 0.375c-2.75-1.75-6.625-3.125-12.625-3.125-11.25-0.125-19.75 6.375-19.625 15.25l0 1.625 0.75 0-0.125-1.125c-0.25-7.5 6.875-14.25 16.875-14.25 3.875 0 6.75 1 10.375 3-3.25 0-5.875-0.375-8.375-1.25l-0.375 0.625c2.625 1 5.375 1.625 10.125 1.5 4.5 3.625 7.875 9.125 10.375 13.125l3.125 5c4.625 7.625 12.875 22.75 28.5 26.125 7.125 1.5 14.375 0.625 19.25-3.25l-0.25-0.5c-2.625 2-6.5 3.75-11.875 3.75-13.5 0-21.125-10.25-26.125-17.5-5.375-7.75-9.875-16.875-14.5-21.75-1.375-1.625-2.875-3-4.75-4.375l2.875-0.5c10.125-2 16.75-7.875 17.25-17.25 0.625-8.875-4.625-16.875-14.375-19.125-2.375-0.625-5.5-0.875-8.375-0.875l-24.75 0 0 0.5c5 0.125 7.125 0.25 7.25 7.5l0 24.625c1.5-0.375 3.25-0.625 4.625-0.625z"
                      fill="#B08D4C"
                    ></path></g>
<g transform="translate(16.260 5.150) scale(0.283380 0.283370) translate(-0.000000 -0.000000)"><path
                      d="M39.125 0.625c2.75 0.125 6.125 0.5 9 2.375 2.125 1.25 3.75 3.75 4.5 8.625l0.625 0-1.625-11.625-50.875 0-0.75 4.625c0.5 0.5 1 0.875 1.5 1.375 2.25-3.5 6.375-5.125 13.125-5.25l8.875-0.125 0 56c-0.125 9.375-0.375 10.625-7.25 11l0 0.625 19.375-0.125 0-0.5c-5.5-0.125-6.75-0.625-7.125-5.25l-0.125-2.5 0-59.25 10.75 0z"
                      fill="#B08D4C"
                    ></path></g>
<g transform="translate(4.140 15.390) scale(0.283590 0.283411) translate(-0.000000 -0.000000)"><path
                      d="M12 0c-1 0-3 0.25-4.625 0.625l0 21.125c0 8.75-0.75 9.75-7.375 9.875l0 0.625 19.5-0.125 0-0.625c-5.875 0-7.375-0.625-7.5-8l0-23.5z"
                      fill="#B08D4C"
                    ></path></g>
  </g>
</svg>
